<svg version="1.2" xmlns="http://www.w3.org/2000/svg">
    <symbol id="wave-1" viewBox="0 0 960 540">
        <path d="M0 541h960V294H0zm960-247H0V32.1c32-3.4 96-16.4 160-16.6 64-.3 96 14.2 160 15.3 64 1.3 96-11.8 160-9.6 64 2.1 96 24.7 160 20.5S736-.2 800 0c64.1.2 128 34.3 160 42.9"/>
    </symbol>

    <symbol id="wave-2" viewBox="0 0 960 540">
        <path d="M0 50.6c32-9.3 96-39.8 160-46.3 64-6.4 96 14.7 160 14.1s96-24.3 160-17c64 7.2 96 51.7 160 53.3s96-37.8 160-45.1 128 7 160 8.8v572.2H0"/>
    </symbol>

    <symbol id="wave-3" viewBox="0 0 960 540">
        <path d="M0 34.3c32-6.6 96-29.8 160-33s96 16 160 17 96-17.4 160-12 96 40.2 160 39 96-49.4 160-45 128 53.6 160 67v507H0"/>
    </symbol>

    <symbol id="wave-4" viewBox="0 0 960 540">
        <path d="M960 521.8c-32-1.5-96-10.7-160-7.3-64 3.3-96 23.7-160 24.2s-96-19.3-160-21.6c-64-2.4-96 12.5-160 9.9s-96-25.5-160-23c-64 2.6-128 28.8-160 36V0h960"/>
    </symbol>
</svg>