<svg version="1.2" xmlns="http://www.w3.org/2000/svg" viewBox="0 0 480 129">
    <path id="trail"
    d="M139 1.5c-5.8.7-14.3 2-19 2.9-4.7 1-14 3.3-20.8 5.2-6.7 1.9-16.8 5.2-22.4 7.5-5.7 2.2-15.4 6.6-21.6 9.7-6.3 3.2-12.2 6.5-13.3 7.5-1.1.9-1.9 3-1.9 4.7q0 3 2 4c1.1.5 2.8 1 3.8 1 .9 0 6-2.2 11.2-4.9s12.9-6.4 17-8.2S86.5 26 92.5 24c6-2.1 16.2-4.9 22.5-6.3 6.3-1.5 16.8-3.3 23.3-4.2 6.8-.9 19.3-1.5 29.7-1.5s22.9.6 29.8 1.5c6.4.9 16.9 2.7 23.2 4.2 6.3 1.4 17.3 4.5 24.5 7 7.2 2.4 19.9 7.7 28.3 11.8 8.3 4.1 16.2 7.5 17.5 7.5s2.8-.6 3.5-1.3c.7-.6 1.2-2.4 1.2-4 0-1.5-.8-3.4-1.7-4.3-1-.9-4.5-3.1-7.8-4.7-3.3-1.7-10.7-5.3-16.5-8s-16.6-6.9-24-9.4c-7.4-2.4-20-5.7-28-7.2-8-1.6-17.8-3.3-21.8-4-3.9-.6-16.1-1.1-26.9-1-10.9.1-24.5.7-30.3 1.4"/>

    <path id="planet"
    d="M27 54.8c-3 1-7.1 2.7-9 3.9s-5.5 4.3-7.9 7C7.6 68.3 4.5 73 3.1 76 1 80.6.6 83.1.6 91c-.1 8.7.2 10.1 3.1 16 2.1 4.4 5 8.2 9 11.8 3.4 3.2 8.1 6.2 11.3 7.5 4.1 1.5 7.7 2.1 14 2.1s9.9-.6 14-2.1c3.2-1.3 7.9-4.3 11.4-7.5 4-3.6 6.8-7.3 8.9-11.8 2.9-5.9 3.2-7.4 3.2-16s-.3-10.1-3.2-16c-2.1-4.5-4.9-8.2-8.9-11.8-3.6-3.3-8-6.1-11.4-7.4-3-1.1-8.6-2.2-12.5-2.4-4.9-.3-8.6.1-12.5 1.4"/>

    <path id="text"
    d="M127.2 54c16 0 22.7.4 25 1.3 1.8.8 4.8 2.7 6.7 4.3 1.8 1.6 4.2 4.6 5.2 6.7 1.2 2.4 1.9 5.9 1.9 9.9 0 3.5-.7 8.3-1.5 10.8-.9 2.5-2.6 5.5-3.8 6.8-1.2 1.2-3 2.2-4 2.2-.9 0-2.6.9-3.7 2s-2 3-2 4.2c.1 1.5 2.9 5.2 8 10.3 5.7 5.7 8 8.7 8 10.5 0 1.4-.8 3.3-1.8 4.3-.9 1-2.8 1.8-4.2 1.7-1.6 0-3.9-1.5-6.6-4.2-2.3-2.4-7.9-9-12.5-14.8s-9.4-12-10.7-13.8c-1.2-1.7-2.2-4.4-2.2-6 0-1.5.5-3.3 1.2-4 .8-.8 4.3-1.2 10.1-1.2 8.5 0 9-.1 11.8-3 2.1-2.2 2.9-4 2.9-6.8 0-2-.7-4.7-1.5-6-.8-1.2-3.2-2.6-5.3-3.2-2-.5-9.7-1-17-1-11.9 0-13.4.2-15.2 2-1.9 1.9-2 3.3-2 30.8 0 21.2-.3 29-1.2 29.9-.7.7-2.6 1.3-4.2 1.3-1.7 0-3.7-.5-4.4-1.2-.9-1-1.3-9.6-1.4-36.3-.2-29 0-35.3 1.2-36.3 1-.9 7.7-1.2 23.2-1.2m91.5 0c19.8 0 22.7.2 26 1.9 2.1 1 5.3 3.6 7.2 5.7 1.9 2.2 4 5.4 4.8 7.1.7 1.8 1.3 5 1.3 7 0 2.2-1.3 6.4-2.9 9.8-2.2 4.3-2.7 6.6-2.1 8 .5 1.1 1.8 3.8 2.9 6 1.2 2.2 2.1 5.7 2.1 7.7 0 2.1-.6 5.3-1.3 7-.8 1.8-2.9 5-4.8 7.2-1.9 2.1-5.1 4.7-7.2 5.7-3.3 1.7-6.2 1.9-26 1.9-16.6 0-22.5-.3-23.5-1.2-.9-1-1.3-9.6-1.4-36.4-.2-28.9 0-35.2 1.2-36.2 1-.9 7.8-1.2 23.7-1.2M205 91.5c0 21.2.1 22.6 2 24.5 1.8 1.8 3.3 2 15.7 2 7.6 0 15.4-.5 17.3-1.1s4.3-2.1 5.3-3.3c1.1-1.2 1.8-3.9 1.9-6.4.1-3.7-.4-4.8-3-7.3-2.9-2.6-3.9-2.9-10-2.9-4.1 0-7.2-.5-8-1.2-.7-.7-1.2-2.6-1.2-4.3s.5-3.6 1.2-4.3 3.9-1.2 8.1-1.2c6.3 0 7.1-.2 9.8-3 2.3-2.4 2.9-3.9 2.9-7.3 0-2.3-.7-5.2-1.5-6.5-.8-1.2-3.2-2.6-5.3-3.2-2-.5-9.9-1-17.5-1-12.4 0-13.9.2-15.7 2-1.9 1.9-2 3.3-2 24.5M290.4 54c1.7 0 3.7.5 4.4 1.2.9 1 1.2 9.4 1.2 36.3 0 26.1-.3 35.3-1.2 36.3-.7.6-2.6 1.2-4.2 1.2-1.7 0-3.7-.5-4.4-1.2-.9-1-1.3-9.6-1.4-36.3-.2-29 0-35.3 1.2-36.3.8-.7 2.8-1.2 4.4-1.2m64 0c22.2 0 29.4.3 30.4 1.2.7.7 1.2 2.6 1.2 4.3 0 1.6-.5 3.6-1.2 4.2q-1.2 1.3-11 1.3c-8.5 0-10.1.3-11.8 2-1.9 1.9-2 3.3-2 30.7 0 21.3-.3 29.1-1.2 30-.7.7-2.6 1.3-4.2 1.3-1.7 0-3.7-.5-4.4-1.2-.9-1-1.2-8.2-1.2-30.1 0-27.4-.1-28.8-2-30.7-1.7-1.7-3.3-2-11.8-2-6.5 0-10.1-.4-11-1.2-.7-.7-1.3-2.7-1.4-4.4-.1-1.6.4-3.5 1.2-4.2 1-.9 9.3-1.2 30.4-1.2m88.1 0c.6 0 1.9.6 3 1.4 1.1.7 9.1 15.7 17.8 33.2 9.8 19.6 15.9 33.1 15.9 34.9s-.7 3.5-1.9 4.3c-1.4.9-9.8 1.2-34.8 1.2s-33.4-.3-34.8-1.2c-1.2-.8-1.9-2.5-1.9-4.3s6.1-15.3 15.9-34.9c8.7-17.5 16.7-32.5 17.8-33.2 1.1-.8 2.4-1.4 3-1.4m-10.9 39.8c-4 8.1-7.6 15.7-8 16.9-.4 1.6 0 2.9 1.4 4.3 1.8 1.8 3.3 2 17.5 2s15.7-.2 17.5-2c1.4-1.4 1.8-2.7 1.4-4.2-.4-1.3-3.9-8.8-7.9-16.8-3.9-8-7.9-14.8-8.8-15.2-1-.5-2-.8-2.5-.7-.4 0-1.3.3-2 .6s-4.5 7.1-8.6 15.1"/>
</svg>