<?xml version="1.0" encoding="UTF-8"?><!DOCTYPE svg PUBLIC "-//W3C//DTD SVG 1.1//EN" "http://www.w3.org/Graphics/SVG/1.1/DTD/svg11.dtd"><svg xmlns="http://www.w3.org/2000/svg" xmlns:xlink="http://www.w3.org/1999/xlink"><defs/><symbol id="add" viewBox="0 -960 960 960"><path d="M440-440v120q0 17 11.5 28.5T480-280t28.5-11.5T520-320v-120h120q17 0 28.5-11.5T680-480t-11.5-28.5T640-520H520v-120q0-17-11.5-28.5T480-680t-28.5 11.5T440-640v120H320q-17 0-28.5 11.5T280-480t11.5 28.5T320-440zM200-120q-33 0-56.5-23.5T120-200v-560q0-33 23.5-56.5T200-840h560q33 0 56.5 23.5T840-760v560q0 33-23.5 56.5T760-120z"/></symbol><symbol id="administration" viewBox="0 -960 960 960"><path d="M240-80q-33 0-56.5-23.5T160-160v-640q0-33 23.5-56.5T240-880h480q33 0 56.5 23.5T800-800v640q0 33-23.5 56.5T720-80h-71q-23 0-41.5-12T578-124l-18-36H400l-18 36q-11 20-29.5 32T311-80zm102-280h276q9 0 15.5-6.5T640-382q0-52-50-75t-110-23-110 23-50 75q0 9 6.5 15.5T342-360m138-160q33 0 56.5-23.5T560-600t-23.5-56.5T480-680t-56.5 23.5T400-600t23.5 56.5T480-520"/></symbol><symbol id="arrow-back" viewBox="0 -960 960 960"><path d="M253-446q-9-6-13.5-15t-4.5-19 4.5-19 13.5-15l326-207q5-3 10.5-4.5T600-727q16 0 28 11.5t12 28.5v414q0 17-12 28.5T600-233q-5 0-10.5-1.5T579-239z"/></symbol><symbol id="check" viewBox="0 -960 960 960"><path d="m424-408-86-86q-11-11-28-11t-28 11-11 28 11 28l114 114q12 12 28 12t28-12l226-226q11-11 11-28t-11-28-28-11-28 11zm56 328q-83 0-156-31.5T197-197t-85.5-127T80-480t31.5-156T197-763t127-85.5T480-880t156 31.5T763-763t85.5 127T880-480t-31.5 156T763-197t-127 85.5T480-80"/></symbol><symbol id="cross" viewBox="0 -960 960 960"><path d="M440-440H240q-17 0-28.5-11.5T200-480t11.5-28.5T240-520h200v-200q0-17 11.5-28.5T480-760t28.5 11.5T520-720v200h200q17 0 28.5 11.5T760-480t-11.5 28.5T720-440H520v200q0 17-11.5 28.5T480-200t-28.5-11.5T440-240z"/></symbol><symbol id="dashboard" viewBox="0 -960 960 960"><path d="M560-600q-17 0-28.5-11.5T520-640v-160q0-17 11.5-28.5T560-840h240q17 0 28.5 11.5T840-800v160q0 17-11.5 28.5T800-600zM160-440q-17 0-28.5-11.5T120-480v-320q0-17 11.5-28.5T160-840h240q17 0 28.5 11.5T440-800v320q0 17-11.5 28.5T400-440zm400 320q-17 0-28.5-11.5T520-160v-320q0-17 11.5-28.5T560-520h240q17 0 28.5 11.5T840-480v320q0 17-11.5 28.5T800-120zm-400 0q-17 0-28.5-11.5T120-160v-160q0-17 11.5-28.5T160-360h240q17 0 28.5 11.5T440-320v160q0 17-11.5 28.5T400-120z"/></symbol><symbol id="delete" viewBox="0 -960 960 960"><path d="M280-120q-33 0-56.5-23.5T200-200v-520q-17 0-28.5-11.5T160-760t11.5-28.5T200-800h160q0-17 11.5-28.5T400-840h160q17 0 28.5 11.5T600-800h160q17 0 28.5 11.5T800-760t-11.5 28.5T760-720v520q0 33-23.5 56.5T680-120zm200-284 76 76q11 11 28 11t28-11 11-28-11-28l-76-76 76-76q11-11 11-28t-11-28-28-11-28 11l-76 76-76-76q-11-11-28-11t-28 11-11 28 11 28l76 76-76 76q-11 11-11 28t11 28 28 11 28-11z"/></symbol><symbol id="drop-down" viewBox="0 -960 960 960"><path d="M480-360 280-560h400z"/></symbol><symbol id="drop-up" viewBox="0 -960 960 960"><path d="m280-400 200-200 200 200z"/></symbol><symbol id="edit" viewBox="0 -960 960 960"><path d="M400-360q-17 0-28.5-11.5T360-400v-97q0-16 6-30.5t17-25.5l344-344q12-12 27-18t30-6q16 0 30.5 6t26.5 18l56 57q11 12 17 26.5t6 29.5-5.5 29.5T897-728L553-384q-11 11-25.5 17.5T497-360zm384-368 57-56-56-56-57 56zM200-120q-33 0-56.5-23.5T120-200v-560q0-33 23.5-56.5T200-840h260q14 0 23 7t14 18 3.5 22-11.5 21L303-586q-11 11-17 25.5t-6 30.5v170q0 33 23.5 56.5T360-280h169q16 0 30.5-6t25.5-17l187-187q10-10 21-11.5t22 3.5 18 14 7 23v261q0 33-23.5 56.5T760-120z"/></symbol><symbol id="enter" viewBox="0 -960 960 960"><path d="M520-120q-17 0-28.5-11.5T480-160t11.5-28.5T520-200h240v-560H520q-17 0-28.5-11.5T480-800t11.5-28.5T520-840h240q33 0 56.5 23.5T840-760v560q0 33-23.5 56.5T760-120zm-73-320H160q-17 0-28.5-11.5T120-480t11.5-28.5T160-520h287l-75-75q-11-11-11-27t11-28 28-12.5 29 11.5l143 143q12 12 12 28t-12 28L429-309q-12 12-28.5 11.5T372-310q-11-12-10.5-28.5T373-366z"/></symbol><symbol id="exit" viewBox="0 -960 960 960"><path d="M200-120q-33 0-56.5-23.5T120-200v-560q0-33 23.5-56.5T200-840h280v80H200v560h280v80zm440-160-55-58 102-102H360v-80h327L585-622l55-58 200 200z"/></symbol><symbol id="game-controller" viewBox="0 -960 960 960"><path d="M182-200q-51 0-79-35.5T82-322l42-300q9-60 53.5-99T282-760h396q60 0 104.5 39t53.5 99l42 300q7 51-21 86.5T778-200q-21 0-39-7.5T706-230l-90-90H344l-90 90q-15 15-33 22.5t-39 7.5m498-240q17 0 28.5-11.5T720-480t-11.5-28.5T680-520t-28.5 11.5T640-480t11.5 28.5T680-440m-80-120q17 0 28.5-11.5T640-600t-11.5-28.5T600-640t-28.5 11.5T560-600t11.5 28.5T600-560m-290 50v40q0 13 8.5 21.5T340-440t21.5-8.5T370-470v-40h40q13 0 21.5-8.5T440-540t-8.5-21.5T410-570h-40v-40q0-13-8.5-21.5T340-640t-21.5 8.5T310-610v40h-40q-13 0-21.5 8.5T240-540t8.5 21.5T270-510z"/></symbol><symbol id="hide" viewBox="0 -960 960 960"><path d="m644-428-58-58q9-47-27-88t-93-32l-58-58q17-8 34.5-12t37.5-4q75 0 127.5 52.5T660-500q0 20-4 37.5T644-428m128 126-58-56q38-29 67.5-63.5T832-500q-50-101-143.5-160.5T480-720q-29 0-57 4t-55 12l-62-62q41-17 84-25.5t90-8.5q151 0 269 83.5T920-500q-23 59-60.5 109.5T772-302m20 246L624-222q-35 11-70.5 16.5T480-200q-151 0-269-83.5T40-500q21-53 53-98.5t73-81.5L56-792l56-56 736 736zM222-624q-29 26-53 57t-41 67q50 101 143.5 160.5T480-280q20 0 39-2.5t39-5.5l-36-38q-11 3-21 4.5t-21 1.5q-75 0-127.5-52.5T300-500q0-11 1.5-21t4.5-21zm168 168"/></symbol><symbol id="home" viewBox="0 -960 960 960"><path d="M240-120q-50 0-85-35t-35-85v-240q0-24 9-46t26-39l240-240q17-18 39.5-26.5T480-840t45 8.5 40 26.5l30 30-315 315v180h400v-180L536-604l115-114 154 153q17 17 26 39t9 46v240q0 50-35 85t-85 35z"/></symbol><symbol id="image" viewBox="0 -960 960 960"><path d="M200-120q-33 0-56.5-23.5T120-200v-560q0-33 23.5-56.5T200-840h295q20 0 30.5 16.5T529-788q-5 17-7 34t-2 34q0 100 70 170t170 70q8 0 17-.5t17-2.5q18-2 32 9t14 28v246q0 33-23.5 56.5T760-120zm80-160h400q12 0 18-11t-2-21L586-459q-6-8-16-8t-16 8L450-320l-74-99q-6-8-16-8t-16 8l-80 107q-8 10-2 21t18 11m480-280q-17 0-28.5-11.5T720-600v-127l-36 35q-11 11-27.5 11.5T628-692q-11-11-11-28t11-28l104-104q6-6 13-9t15-3 15 3 13 9l104 104q11 11 11.5 27.5T892-692q-11 11-28 11t-28-11l-36-35v127q0 17-11.5 28.5T760-560"/></symbol><symbol id="loading" viewBox="0 -960 960 960"><path d="M480-80q-82 0-155-31.5t-127.5-86-86-127.5T80-480q0-83 31.5-155.5t86-127 127.5-86T480-880q17 0 28.5 11.5T520-840t-11.5 28.5T480-800q-133 0-226.5 93.5T160-480t93.5 226.5T480-160t226.5-93.5T800-480q0-17 11.5-28.5T840-520t28.5 11.5T880-480q0 82-31.5 155t-86 127.5-127 86T480-80"/></symbol><symbol id="menu-close" viewBox="0 -960 960 960"><path d="M360-120v-720h80v720zm160-160v-400l200 200z"/></symbol><symbol id="menu-open" viewBox="0 -960 960 960"><path d="M440-280v-400L240-480zm80 160h80v-720h-80z"/></symbol><symbol id="refresh" viewBox="0 -960 960 960"><path d="M480-160q-134 0-227-93t-93-227 93-227 227-93q69 0 132 28.5T720-690v-70q0-17 11.5-28.5T760-800t28.5 11.5T800-760v200q0 17-11.5 28.5T760-520H560q-17 0-28.5-11.5T520-560t11.5-28.5T560-600h128q-32-56-87.5-88T480-720q-100 0-170 70t-70 170 70 170 170 70q68 0 124.5-34.5T692-367q8-14 22.5-19.5t29.5-.5q16 5 23 21t-1 30q-41 80-117 128t-169 48"/></symbol><symbol id="relational" viewBox="0 -960 960 960"><path d="M600-200v-40h-80q-33 0-56.5-23.5T440-320v-320h-80v40q0 33-23.5 56.5T280-520H160q-33 0-56.5-23.5T80-600v-160q0-33 23.5-56.5T160-840h120q33 0 56.5 23.5T360-760v40h240v-40q0-33 23.5-56.5T680-840h120q33 0 56.5 23.5T880-760v160q0 33-23.5 56.5T800-520H680q-33 0-56.5-23.5T600-600v-40h-80v320h80v-40q0-33 23.5-56.5T680-440h120q33 0 56.5 23.5T880-360v160q0 33-23.5 56.5T800-120H680q-33 0-56.5-23.5T600-200"/></symbol><symbol id="search" viewBox="0 -960 960 960"><path d="M380-320q-109 0-184.5-75.5T120-580t75.5-184.5T380-840t184.5 75.5T640-580q0 44-14 83t-38 69l224 224q11 11 11 28t-11 28-28 11-28-11L532-372q-30 24-69 38t-83 14m0-80q75 0 127.5-52.5T560-580t-52.5-127.5T380-760t-127.5 52.5T200-580t52.5 127.5T380-400"/></symbol><symbol id="show" viewBox="0 -960 960 960"><path d="M480-320q75 0 127.5-52.5T660-500t-52.5-127.5T480-680t-127.5 52.5T300-500t52.5 127.5T480-320m0-72q-45 0-76.5-31.5T372-500t31.5-76.5T480-608t76.5 31.5T588-500t-31.5 76.5T480-392m0 192q-146 0-266-81.5T40-500q54-137 174-218.5T480-800t266 81.5T920-500q-54 137-174 218.5T480-200m0-80q113 0 207.5-59.5T832-500q-50-101-144.5-160.5T480-720t-207.5 59.5T128-500q50 101 144.5 160.5T480-280"/></symbol><symbol id="support" viewBox="0 -960 960 960"><path d="m480-80-10-120h-10q-142 0-241-99t-99-241 99-241 241-99q71 0 132.5 26.5t108 73 73 108T800-540q0 75-24.5 144t-67 128-101 107T480-80m-21-241q17 0 29-12t12-29-12-29-29-12-29 12-12 29 12 29 29 12m-29-127h60q0-30 6-42t38-44q18-18 30-39t12-45q0-51-34.5-76.5T460-720q-44 0-74 24.5T344-636l56 22q5-17 19-33.5t41-16.5 40.5 15 13.5 33q0 17-10 30.5T480-558q-35 30-42.5 47.5T430-448"/></symbol><symbol id="tables" viewBox="0 -960 960 960"><path d="M320-80h200v-160H240v80q0 33 23.5 56.5T320-80m280 0h200q33 0 56.5-23.5T880-160v-80H600zM120-240q-17 0-28.5-11.5T80-280v-520q0-33 23.5-56.5T160-880h520q17 0 28.5 11.5T720-840t-11.5 28.5T680-800H160v520q0 17-11.5 28.5T120-240m120-80h280v-160H240zm360 0h280v-160H600zM240-560h640v-80q0-33-23.5-56.5T800-720H320q-33 0-56.5 23.5T240-640z"/></symbol><symbol id="user" viewBox="0 -960 960 960"><path d="M560-680v-80h320v80zm0 160v-80h320v80zm0 160v-80h320v80zm-240-40q-50 0-85-35t-35-85 35-85 85-35 85 35 35 85-35 85-85 35M80-160v-76q0-21 10-40t28-30q45-27 95.5-40.5T320-360t106.5 13.5T522-306q18 11 28 30t10 40v76z"/></symbol></svg>