<?xml version="1.0" encoding="UTF-8"?><!DOCTYPE svg PUBLIC "-//W3C//DTD SVG 1.1//EN" "http://www.w3.org/Graphics/SVG/1.1/DTD/svg11.dtd"><svg xmlns="http://www.w3.org/2000/svg" xmlns:xlink="http://www.w3.org/1999/xlink"><defs/><symbol id="enter" viewBox="0 -960 960 960"><path d="M480-120v-80h280v-560H480v-80h280q33 0 56.5 23.5T840-760v560q0 33-23.5 56.5T760-120zm-80-160-55-58 102-102H120v-80h327L345-622l55-58 200 200z"/></symbol><symbol id="hide" viewBox="0 -960 960 960"><path d="m644-428-58-58q9-47-27-88t-93-32l-58-58q17-8 34.5-12t37.5-4q75 0 127.5 52.5T660-500q0 20-4 37.5T644-428m128 126-58-56q38-29 67.5-63.5T832-500q-50-101-143.5-160.5T480-720q-29 0-57 4t-55 12l-62-62q41-17 84-25.5t90-8.5q151 0 269 83.5T920-500q-23 59-60.5 109.5T772-302m20 246L624-222q-35 11-70.5 16.5T480-200q-151 0-269-83.5T40-500q21-53 53-98.5t73-81.5L56-792l56-56 736 736zM222-624q-29 26-53 57t-41 67q50 101 143.5 160.5T480-280q20 0 39-2.5t39-5.5l-36-38q-11 3-21 4.5t-21 1.5q-75 0-127.5-52.5T300-500q0-11 1.5-21t4.5-21zm168 168"/></symbol><symbol id="loading" viewBox="0 -960 960 960"><path d="M480-80q-82 0-155-31.5t-127.5-86-86-127.5T80-480q0-83 31.5-155.5t86-127 127.5-86T480-880q17 0 28.5 11.5T520-840t-11.5 28.5T480-800q-133 0-226.5 93.5T160-480t93.5 226.5T480-160t226.5-93.5T800-480q0-17 11.5-28.5T840-520t28.5 11.5T880-480q0 82-31.5 155t-86 127.5-127 86T480-80"/></symbol><symbol id="show" viewBox="0 -960 960 960"><path d="M480-320q75 0 127.5-52.5T660-500t-52.5-127.5T480-680t-127.5 52.5T300-500t52.5 127.5T480-320m0-72q-45 0-76.5-31.5T372-500t31.5-76.5T480-608t76.5 31.5T588-500t-31.5 76.5T480-392m0 192q-146 0-266-81.5T40-500q54-137 174-218.5T480-800t266 81.5T920-500q-54 137-174 218.5T480-200m0-80q113 0 207.5-59.5T832-500q-50-101-144.5-160.5T480-720t-207.5 59.5T128-500q50 101 144.5 160.5T480-280"/></symbol></svg>