<svg xmlns="http://www.w3.org/2000/svg" viewBox="0 0 140 87" fill="none">

    <path stroke="#fff" d="M.9.5h138.2v74.4H.9z"/><path stroke="#fff" d="M3.8 3.4h132.4V72H3.8zm43.5 78.3h45.4v4.8H47.3z"/>

    <path stroke="#fff" d="M47.3 81.7h45.4v4.8H47.3zm20.3-6.766h4.8v6.733h-4.8z"/>

    <g clip-path="url(#a)" fill="#fff">
        <path d="M42.93 34.866c.991 0 1.818.53 2.203 1.103v-.96h1.514v7.163h-1.029a.496.496 0 0 1-.485-.505v-.454c-.385.572-1.212 1.102-2.203 1.102-1.886 0-3.318-1.675-3.318-3.724s1.432-3.725 3.318-3.725m.275 1.433c-1.225 0-2.051 1.002-2.051 2.292s.826 2.292 2.051 2.292 2.052-1.003 2.052-2.292c0-1.29-.827-2.292-2.052-2.292m5.162-1.289h1.515v.974c.412-.716 1.197-1.117 2.092-1.117 1.597 0 2.63 1.175 2.63 2.994v4.312h-1.029a.496.496 0 0 1-.486-.506V38.12c0-1.131-.55-1.819-1.431-1.819-1.005 0-1.776.817-1.776 2.349v3.524h-1.03a.496.496 0 0 1-.485-.506zm10.753-.143c.991 0 1.818.53 2.203 1.103v-4.541h1.514v10.743h-1.029a.496.496 0 0 1-.485-.505v-.454c-.385.573-1.212 1.102-2.203 1.102-1.886 0-3.318-1.675-3.318-3.724 0-2.048 1.432-3.724 3.318-3.724m.276 1.432c-1.226 0-2.052 1.003-2.052 2.292 0 1.29.826 2.292 2.051 2.292s2.051-1.003 2.051-2.292c0-1.29-.826-2.292-2.05-2.292m5.161-1.289h1.514v1.275a1.94 1.94 0 0 1 1.818-1.346c.192 0 .386.014.592.057v1.618a2.3 2.3 0 0 0-.757-.128c-.867 0-1.653.76-1.653 2.192v3.495h-1.028a.496.496 0 0 1-.486-.506zm8.007 7.305c-2.037 0-3.607-1.648-3.607-3.724s1.57-3.725 3.607-3.725 3.607 1.648 3.607 3.725-1.569 3.724-3.607 3.724m0-1.46c1.212 0 2.066-.99 2.066-2.264s-.854-2.263-2.066-2.263c-1.225 0-2.078.989-2.078 2.263s.853 2.264 2.078 2.264m5.592-7.406c-.55 0-1.019-.473-1.019-1.06 0-.574.468-1.046 1.019-1.046.564 0 1.005.473 1.005 1.045 0 .588-.44 1.06-1.005 1.06m-.757 1.56h1.514v7.163h-1.028a.496.496 0 0 1-.486-.505zm6.076-.141c.992 0 1.818.53 2.204 1.103v-4.541h1.514v10.743h-1.028a.496.496 0 0 1-.486-.505v-.454c-.386.573-1.212 1.102-2.204 1.102-1.885 0-3.317-1.675-3.317-3.724 0-2.048 1.432-3.724 3.317-3.724m.276 1.432c-1.225 0-2.05 1.003-2.05 2.292 0 1.29.825 2.292 2.05 2.292s2.052-1.003 2.052-2.292c0-1.29-.826-2.292-2.052-2.292m6.075-.379h-1.482v-.95h1.482v-2.002h.969v2.002h2.021v.95h-2.021v4.164c0 .879.374 1.224 1.149 1.224.277 0 .65-.057.872-.158v.908c-.319.13-.65.187-1.024.187-1.177 0-1.966-.706-1.966-2.075zm10.868-.95-3.24 7.204h-.76l-3.24-7.203h1.08l2.533 5.719 2.533-5.72z"/>
    </g>

    <defs>
        <clipPath id="a"><path fill="#fff" d="M39.59 31.352h61.135v10.973H39.59z"/></clipPath>
    </defs>

</svg>