<svg xmlns="http://www.w3.org/2000/svg" viewBox="0 0 64 111" fill="none">

    <path stroke="#fff" d="M3 .5h57.7c1.4 0 2.5 1.1 2.5 2.5v105c0 1.4-1.1 2.5-2.5 2.5H3c-1.4 0-2.5-1.1-2.5-2.5V3C.5 1.6 1.6.5 3 .5z"/>

    <path stroke="#fff" d="M5.3 11.1h53.1v82H5.3z"/>

    <path stroke="#fff" d="M25.5 98.5h12c1.7 0 3 1.3 3 3s-1.3 3-3 3h-12c-1.7 0-3-1.3-3-3s1.3-3 3-3z"/>

    <path fill="#fff" d="M26.3 37q.1 0 .2.1s.1.1.1.2.1.2.2.3c0 .1.3.5.5.9s.3.7.4.7q0 .1.1.3l.2-.1c.1 0 .3-.1.5-.2.1 0 .3-.1.4-.1s.2-.1.3-.1.2-.1.3-.1h.4c.1-.1.4-.1.7-.1h1.7c.2 0 .5.1.7.1s.4.1.5.1c.2.1.3.1.4.1 0 0 .1.1.2.1s.2.1.3.1c0 0 .2.1.3.1.2.1.2.1.2 0 .1 0 .1-.1.2-.2s.1-.3.2-.4.1-.3.2-.3c0-.1.1-.3.2-.4s.2-.3.2-.4c.1-.2.2-.3.2-.4.1-.1.1-.2.2-.2l.1-.1.1.1.1.1v.2c-.1.1-.1.2-.2.3 0 0-.1.1-.1.2 0 0-.2.4-.4.7-.2.4-.3.6-.3.7q-.1 0-.1.1c-.1.1-.1.2-.1.2v.1l.2.2c.1 0 .3.1.5.2.2.2.4.4.6.5s.5.4.6.6l.5.5.4.4c0 .1.1.3.2.3 0 .1.1.2.1.3.1.1.2.3.2.4.1.1.2.3.2.3 0 .1.1.2.1.3.1.1.1.3.1.4.1.1.1.2.1.2 0 .1.1.2.1.4 0 .1.1.5.1.8.1.2.1.5.1.5l-.1.1c-.1.1-3.7.1-8.1.1-6.8 0-7.9 0-8-.1v-.8c0-.2.1-.4.1-.6.1-.1.1-.2.1-.3v-.1c0-.1.1-.2.1-.3s.1-.2.1-.3c.1-.1.1-.3.2-.4 0 0 .1-.2.1-.3.1-.1.2-.2.2-.3 0 0 .1-.1.2-.3 0-.1.2-.3.3-.4.1-.2.2-.3.2-.3l.5-.5c.2-.3.5-.5.6-.6.2-.1.4-.3.5-.4s.3-.2.4-.2c.1-.1.3-.2.3-.2q.2-.1.2-.2s-.3-.4-.5-.9c-.2-.4-.5-.8-.5-.9l-.1-.1c0-.1-.1-.2-.1-.3l-.1-.1c0-.1.1-.2.1-.2zm.9 5c-.1.1-.1.2-.2.3q-.1.1-.1.3c0 .1.1.2.1.3l.2.2q.2.2.3.2h.3l.2-.1c.1-.1.2-.2.3-.2 0-.1 0-.2.1-.3v-.2c0-.1-.1-.2-.1-.3 0 0-.1-.1-.1-.2l-.2-.1q-.2-.1-.3-.1c-.1 0-.2.1-.3.1s-.2.1-.2.1m7.3.1q-.1.2-.1.3c-.1.1-.1.2 0 .2v.2c0 .1.1.1.1.2s.1.2.2.2q.2.1.3.1h.3q.1-.1.3-.2.1-.2.2-.3v-.3s0-.2-.1-.2c0-.1-.1-.2-.1-.3-.1 0-.2-.1-.3-.1s-.2-.1-.2-.1c-.1 0-.2.1-.3.1s-.2.1-.3.2m-13.6 4.4h.3c0 .1.2.1.3.1.1.1.2.2.3.2.1.1.2.2.3.2 0 .1.1.2.1.2.1.1.1.2.1.2.1.1.1.2.3.6v8.2l-.1.2c-.1.2-.2.3-.2.4 0 0-.1.2-.2.3-.1 0-.2.2-.3.2-.1.1-.2.1-.3.2-.1 0-.3.1-.4.1h-.5c-.2 0-.4-.1-.5-.1-.1-.1-.3-.2-.4-.3-.1 0-.2-.1-.3-.2 0-.1-.1-.2-.2-.3q0-.1-.2-.5v-8.4c.1 0 .1-.1.1-.2.1 0 .1-.2.2-.2 0-.1.1-.3.2-.4q.2-.2.5-.3c.2-.1.3-.1.5-.2zm21 0h.4q.2.1.5.2.2.1.4.3c.1.1.2.3.3.4l.1.2c0 .1.1.2.1.2v8.5c-.1.1-.1.2-.1.2s-.1.1-.1.2c-.1.1-.2.3-.3.4s-.2.2-.3.2c-.1.1-.2.1-.3.2-.1 0-.3.1-.4.1h-.5c-.2 0-.3-.1-.5-.1-.1-.1-.2-.2-.3-.2 0 0-.2-.2-.3-.2 0-.1-.1-.3-.2-.3 0-.1-.1-.3-.3-.7l.1-8.1v-.2c.1-.2.2-.3.2-.4s.1-.2.2-.3c0 0 .2-.2.3-.2.1-.1.2-.2.3-.2.1-.1.3-.1.4-.2zm-10.5.4h8s.1 1.2.1 5.9c0 4.2-.1 6-.1 6.1s-.1.3-.1.4-.1.2-.2.3c0 .1-.1.2-.2.3q-.2.2-.5.3c-.1.1-.3.2-.4.2s-.5.1-1 .1h-.8s0 1-.1 4.4l-.1.2c0 .2-.1.3-.2.4 0 .1-.2.2-.2.3-.1.1-.2.2-.3.2s-.2.1-.3.1c-.2.1-.2.1-.6.1s-.4 0-.6-.1h-.2l-.2-.2c-.1 0-.3-.2-.3-.3l-.3-.3c0-.1-.1-.2-.1-.3-.1-.2-.1-.5-.1-2.3v-2.2h-2.4c-.1 0-.1.3-.1 2.2V65c-.1.1-.1.2-.2.3 0 .1-.1.2-.2.3l-.3.3c-.1.1-.3.2-.4.2s-.3.1-.4.1h-.4q-.3 0-.5-.1c-.1 0-.2-.1-.2-.1-.1 0-.2-.1-.3-.2l-.3-.3c0-.1-.1-.2-.3-.6v-2.2c0-2.1-.1-2.1-.1-2.2h-.8c-.5 0-.7 0-.9-.1-.1 0-.3-.1-.4-.1s-.3-.2-.4-.2c-.1-.1-.2-.3-.3-.4s-.2-.3-.3-.4c0-.1-.1-.3-.1-.5V46.9z"/>

</svg>