<svg xmlns="http://www.w3.org/2000/svg" viewBox="0 0 140 87" fill="none">

    <path stroke="#fff" d="M1.335.5h137.33v86H1.335z"/>
    
    <path stroke="#fff" d="M77.025 3.98h41.63v5.09h-41.63z"/>
    
    <g clip-path="url(#a)" fill="#fff">
        <path d="M70 57.813a8.3 8.3 0 0 1-4.68-1.404c-1.404-.936-2.457-2.106-3.159-3.569l-7.02-12.168c-1.462 2.633-2.106 5.5-2.106 8.483 0 4.27 1.404 7.956 4.154 11.115s6.2 5.03 10.296 5.674l4.914-8.54a7.1 7.1 0 0 1-2.399.409m-5.323-15.678C66.256 40.906 68.01 40.38 70 40.38h14.567c-1.521-2.574-3.569-4.446-6.143-5.909Q74.563 32.191 70 32.19a16.9 16.9 0 0 0-7.43 1.696c-2.28 1.112-4.446 2.75-5.967 4.856l4.914 8.073c.468-1.872 1.58-3.451 3.16-4.68"/>
        <path d="M85.678 42.778H75.85c1.697 1.697 2.867 3.92 2.867 6.377 0 1.813-.527 3.451-1.522 4.972l-7.02 11.993c4.622-.059 8.6-1.697 11.876-5.031q4.914-5.002 4.914-11.934c0-2.165-.351-4.446-1.287-6.377"/><path d="M70 42.72c3.51 0 6.435 2.925 6.435 6.435S73.51 55.59 70 55.59s-6.435-2.925-6.435-6.435S66.49 42.72 70 42.72"/></g><path stroke="#fff" d="M.835 11.68h138.33"/>
        <circle cx="12.145" cy="6.09" fill="#fff" r="1.74"/>
        <circle cx="17.365" cy="6.09" fill="#fff" r="1.74"/>
        <circle cx="22.585" cy="6.09" fill="#fff" r="1.74"/>
        <defs><clipPath id="a"><path fill="#fff" d="M53.035 32.19h33.93v33.93h-33.93z"/></clipPath></defs>
</svg>