<svg xmlns="http://www.w3.org/2000/svg" viewBox="0 0 117 87" fill="none">

    <path stroke="#fff" d="M1.4.5h114.2v72.8H1.4z"/>
    
    <path stroke="#fff" d="M1.4 56.7h114.2v16.6H1.4zm43.2 29.8 3.3-13.1H70l3.2 13.1zm-9.4 0h46.6"/>
    
    <path fill="#fff" d="M63.4 19c-.1 0-.3.1-.4.1-.2 0-.4.1-.5.2-.2 0-.4.1-.6.2s-.5.2-.6.3c-.2.1-.4.3-.5.4-.2.1-.4.4-.6.6-.2.1-.4.4-.5.5s-.2.3-.3.4c-.1.2-.2.3-.3.5 0 .1-.1.3-.2.4 0 .2-.1.4-.1.4-.1.1-.1.3-.1.5-.1.2-.1.4-.1.7v.9h.6c.1 0 .3-.1.4-.1.2 0 .4-.1.6-.2.1 0 .4-.1.6-.2.1-.1.3-.2.4-.3.2 0 .4-.2.5-.3.2-.2.4-.4.6-.5.1-.1.3-.3.4-.5.1-.1.2-.3.3-.4 0-.1.1-.3.2-.4s.2-.3.2-.4c.1-.2.2-.4.2-.6.1-.2.1-.4.2-.5v-.6c0-.2.1-.5 0-.7V19zm-9.1 5.8h-.5c-.2 0-.5.1-.6.1s-.4.1-.5.1c-.2.1-.4.2-.6.2-.1.1-.3.2-.5.3-.1 0-.3.2-.5.3-.1.1-.3.2-.4.3-.2.1-.4.3-.5.4l-.5.5c-.1.1-.3.4-.4.6-.2.2-.3.5-.4.6s-.2.4-.2.6c-.1.1-.2.4-.3.6 0 .2-.1.5-.2.7 0 .2-.1.5-.1.7s-.1.6-.1.9v1.2c0 .3.1.8.1 1.1 0 .2.1.6.1.8.1.1.1.5.2.7 0 .2.1.6.2.8 0 .1.1.5.2.7s.2.5.3.6c0 .2.1.5.2.7.1.1.3.5.4.8s.4.7.5.9c.1.3.4.7.6 1s.5.7.6.8c.2.2.4.5.6.7l.6.6c.2.1.4.3.5.3.1.1.3.2.5.3.1.1.3.1.5.2.1 0 .3.1.5.1h.5c.2 0 .4-.1.5-.1s.2 0 .3-.1c.1 0 .4-.1.6-.2.3-.1.6-.2.8-.3.3-.1.6-.2.8-.2.2-.1.5-.1.6-.1h1.5q.3.1 1.1.4c.4.1.9.3 1 .4.2 0 .4.1.6.1.3.1.5.1.7.1s.4 0 .6-.1c.1 0 .3-.1.4-.1.1-.1.3-.2.5-.2l.4-.4c.2-.1.4-.3.6-.4.2-.2.4-.4.5-.6.2-.1.4-.4.5-.5.1-.2.3-.4.4-.5.1-.2.3-.5.5-.7.1-.2.3-.5.4-.6.1-.2.2-.5.3-.7s.3-.5.4-.7c.1-.3.2-.6.3-.8l.2-.4c0-.1-.1-.1-.2-.2-.1 0-.3-.1-.5-.2-.1-.1-.4-.3-.6-.5-.1-.1-.4-.3-.5-.4-.2-.1-.4-.4-.5-.5s-.3-.4-.4-.5l-.3-.6c-.1-.2-.2-.5-.2-.6-.1-.1-.2-.4-.2-.6s-.1-.5-.1-.7v-1.3c.1-.1.1-.3.2-.5 0-.2.1-.5.2-.6.1-.2.2-.5.3-.7.1-.1.3-.4.4-.5s.3-.5.6-.7c.2-.2.6-.5.8-.7l.3-.3s-.1-.1-.2-.3l-.4-.4c-.2-.1-.4-.3-.5-.4s-.3-.2-.5-.3c-.1-.1-.4-.3-.5-.4-.2-.1-.5-.2-.6-.2-.2-.1-.4-.2-.6-.2-.2-.1-.6-.2-.8-.2h-2.2c-.2.1-.6.1-.8.2-.2 0-.7.2-1.2.4-.4.1-.8.3-.9.3s-.3.1-.4.1h-.6c-.1 0-.3-.1-.4-.1-.1-.1-.6-.2-.9-.4-.4-.2-.9-.3-1-.4-.2 0-.4-.1-.6-.1H55c-.3-.1-.6-.1-.7 0"/>
</svg>