<svg xmlns="http://www.w3.org/2000/svg" viewBox="0 0 64 111" fill="none">

    <rect x=".5" y=".5" width="62.704" height="110" rx="2.5" stroke="#fff"/>
    
    <path stroke="#fff" d="M5.326 11.117h53.052v82.009H5.326zm20.735-5.826h11.583"/>
    
    <circle cx="31.852" cy="101.348" r="4.326" stroke="#fff"/>
    
    <g clip-path="url(#a)">
        <path d="M32.594 52.08a.93.93 0 0 1-.23.63.74.74 0 0 1-.582.266.93.93 0 0 1-.63-.231.74.74 0 0 1-.266-.581q0-.364.238-.63a.76.76 0 0 1 .588-.267q.35 0 .616.232a.74.74 0 0 1 .266.58m.21.812 4.902-8.136q-.127.111-.945.875-.82.764-1.758 1.631-.938.87-1.911 1.779a194 194 0 0 0-1.639 1.547q-.665.638-.707.722l-4.888 8.122q.098-.098.939-.868.84-.771 1.764-1.632l1.905-1.778q.98-.918 1.638-1.555t.7-.707m9.061-.77a9.77 9.77 0 0 1-1.456 5.195 29 29 0 0 0-.61-.385q-.174-.105-.23-.105-.183 0-.183.182 0 .14.827.617a10 10 0 0 1-2.584 2.667 9.8 9.8 0 0 1-3.382 1.548l-.224-.938q-.015-.14-.21-.14-.07 0-.112.077-.042.076-.028.132l.224.953q-1.008.21-2.045.21-2.787 0-5.21-1.47.014-.03.183-.288t.3-.469q.135-.21.134-.266 0-.182-.182-.182-.085 0-.238.203a5 5 0 0 0-.316.483q-.16.28-.189.322a10.1 10.1 0 0 1-2.688-2.626 9.8 9.8 0 0 1-1.54-3.423l.965-.21q.14-.043.14-.21 0-.07-.076-.113-.077-.042-.148-.028l-.952.21a10 10 0 0 1-.196-1.946q0-2.885 1.527-5.308.027.015.259.168.231.155.42.266t.245.112q.182 0 .182-.168 0-.084-.175-.217a5 5 0 0 0-.455-.3l-.28-.169a10.2 10.2 0 0 1 2.646-2.647 9.8 9.8 0 0 1 3.418-1.498l.21.938q.027.14.21.14.07 0 .112-.077t.028-.147l-.21-.924a10.4 10.4 0 0 1 1.876-.182q2.857 0 5.308 1.526-.546.785-.546.91 0 .183.168.182.153 0 .672-.896a9.9 9.9 0 0 1 2.626 2.605 10 10 0 0 1 1.505 3.375l-.784.168q-.14.028-.14.224 0 .07.077.112t.133.028l.798-.182q.195 1.008.196 1.96m1.19 0q0-2.283-.889-4.355t-2.387-3.572q-1.5-1.498-3.572-2.387a10.9 10.9 0 0 0-4.355-.89 10.9 10.9 0 0 0-4.355.89q-2.073.889-3.571 2.387-1.5 1.5-2.388 3.572a10.9 10.9 0 0 0-.89 4.355q0 2.282.89 4.355t2.388 3.571q1.5 1.5 3.57 2.388a10.9 10.9 0 0 0 4.356.89q2.283 0 4.356-.89t3.57-2.388q1.5-1.5 2.388-3.57.89-2.074.89-4.356m1.345 0q0 2.549-.994 4.873-.995 2.325-2.675 4.006-1.68 1.68-4.005 2.674-2.325.995-4.874.995t-4.873-.995-4.006-2.674q-1.68-1.68-2.674-4.006a12.3 12.3 0 0 1-.995-4.873q0-2.55.995-4.874.994-2.325 2.674-4.005t4.006-2.675a12.3 12.3 0 0 1 4.873-.994q2.55 0 4.874.994 2.325.995 4.005 2.675t2.675 4.005.994 4.874" fill="#fff"/>
    </g>
    
    <defs>
        <clipPath id="a"><path fill="#fff" d="M19.304 39.574H44.4V64.67H19.304z"/></clipPath>
    </defs>

</svg>