<svg xmlns="http://www.w3.org/2000/svg" viewBox="0 0 134 87" fill="none">
    <path stroke="#fff" d="M17.73 8.338h99.324v60.135H17.73zM4.283 86.5l-2.85-9.973h131.134l-2.85 9.973z"/>

    <path d="m49.912 82.581-.764-6.054h36.488l-.765 6.054zM10.676.5h112.649v75.811H10.676z" stroke="#fff"/>

    <path d="M65.914 37.412V25.64c-3.951.636-7.165 1.27-11.063 1.906v10.007c3.898-.046 7.112-.095 11.063-.142m1.702-.069c3.989-.048 8.829-.094 12.764-.142V23.513c-3.935.63-8.775 1.258-12.764 1.889zm.214 2.127v11.94c3.918.63 8.63 1.258 12.55 1.888V39.61c-3.918-.047-8.631-.094-12.55-.141m-1.916-.069c-3.951-.049-7.165-.096-11.063-.144v10.008c3.898.636 7.112 1.27 11.063 1.906z" fill="#fff"/>
</svg>