<svg xmlns="http://www.w3.org/2000/svg" width="24" height="24" fill="#fff" viewBox="0 -960 960 960"><path d="M560-600q-17 0-28.5-11.5T520-640v-160q0-17 11.5-28.5T560-840h240q17 0 28.5 11.5T840-800v160q0 17-11.5 28.5T800-600zM160-440q-17 0-28.5-11.5T120-480v-320q0-17 11.5-28.5T160-840h240q17 0 28.5 11.5T440-800v320q0 17-11.5 28.5T400-440zm400 320q-17 0-28.5-11.5T520-160v-320q0-17 11.5-28.5T560-520h240q17 0 28.5 11.5T840-480v320q0 17-11.5 28.5T800-120zm-400 0q-17 0-28.5-11.5T120-160v-160q0-17 11.5-28.5T160-360h240q17 0 28.5 11.5T440-320v160q0 17-11.5 28.5T400-120z"/></svg>